<?xml version="1.0" encoding="UTF-8"?>
<svg id="_图层_1" data-name="图层 1" xmlns="http://www.w3.org/2000/svg" viewBox="0 0 162.53 229.2">
  <defs>
    <style>
      .cls-1 {
        fill: #f7931e;
      }
    </style>
  </defs>
  <path class="cls-1" d="M161.03,132.9c-.99-3-4.36-9.65-10.08-19.96-5.73-10.32-11.77-20.68-18.12-31.11-1.62-2.88-2.43-6.09-2.43-9.64,0-2,.34-4.1,1.03-6.32,.68-2.22,2.52-6.82,5.51-13.81,2.99-6.98,5.85-12.86,8.59-17.63,2.74-4.77,5.45-8.59,8.13-11.48,2.67-2.88,4.01-6.09,4.01-9.64,0-1.78-.53-3.61-1.59-5.49s-2.21-2.83-3.45-2.83-2.24,.22-2.99,.67c-.75,.44-2.62,.66-5.61,.66s-7.16-1.05-12.51-3.16c-5.36-2.1-13.95-3.16-25.78-3.16s-25.47,2-40.91,5.99c-1.5,.22-2.87,.33-4.11,.33s-2.96-.22-5.14-.66c-2.18-.45-6.29,.22-12.33,1.99-6.04,1.78-9.06,3.83-9.06,6.16s2.58,5.32,7.75,8.98c5.17,3.66,7.76,8.37,7.76,14.14,0,3.55-1.38,10.64-4.11,21.29-2.74,10.64-7.73,19.62-14.95,26.94-1.62,1.55-2.43,3.28-2.43,5.16s.66,3.49,1.96,4.82c1.31,1.33,2.99,2,5.05,2s5.38-.45,9.99-1.33c4.61-.89,8.72-2.11,12.33-3.66,3.61-1.55,7.69-2.77,12.24-3.66,4.54-.89,7.13-1.33,7.75-1.33s.93,.22,.93,.66c0,2.44-8.9,9.37-26.71,20.79-17.81,11.43-31.2,17.13-40.16,17.13-3.87,0-6.73-1.21-8.6-3.65-.37-.45-.62-.67-.74-.67-.75,0-1.31,3.11-1.69,9.31-.37,6.22-.56,10.43-.56,12.65,0,8.2,1.22,12.3,3.65,12.3s14.85-7.76,37.27-23.28c22.41-15.52,40.03-29.83,52.86-42.92,2.62-2.66,5.29-3.99,8.04-3.99l11.2-.33c.75,0,1.12,.33,1.12,1s-1.18,2.77-3.54,6.32c-2.37,3.55-9.53,10.59-21.49,21.12-11.95,10.54-25.78,21.13-41.47,31.77-15.69,10.65-28.77,17.96-39.23,21.96-1.12,.44-1.68,1.44-1.68,2.99,0,2.89,.68,6.49,2.05,10.81,1.37,4.33,3.93,6.49,7.66,6.49,1,0,2.4-.33,4.21-1,1.8-.66,8.4-5.16,19.8-13.47,11.39-8.32,24.44-18.96,39.14-31.94,14.69-12.97,28.58-25.89,41.65-38.75,1.62-1.55,2.99-2.33,4.11-2.33s2.25,.78,3.37,2.33c1.12,1.55,1.68,2.99,1.68,4.32s-.97,3.61-2.9,6.82c-1.93,3.22-9.37,11.59-22.32,25.12-12.96,13.53-26.72,26.34-41.29,38.42-14.57,12.09-24.22,18.46-28.95,19.13-2.24,.45-3.36,1.99-3.36,4.66,0,3.55,.65,7.81,1.96,12.8,1.3,4.99,4.01,7.49,8.12,7.49,1.87,0,4.52-1.06,7.94-3.16,3.43-2.11,10.68-8.93,21.77-20.46,11.08-11.53,22.69-24.23,34.84-38.09,12.14-13.86,21.82-25.45,29.05-34.76,2.24-2.88,3.79-4.33,4.67-4.33s2.3,1.67,4.29,4.99c1.99,3.33,2.99,5.99,2.99,7.99,0,3.55-2.61,8.31-7.85,14.3-9.46,10.65-19.33,23.4-29.6,38.26-10.28,14.86-16.51,24.5-18.69,28.94-2.18,4.43-3.27,7.92-3.27,10.48s.94,3.82,2.81,3.82,5.79-2.49,11.77-7.48c5.97-4.99,9.9-9.26,11.76-12.81,4.36-8.87,11.9-20.57,22.61-35.1,10.71-14.52,17.68-22.95,20.92-25.28,3.24-2.33,4.86-4.76,4.86-7.32s-.5-5.32-1.5-8.31ZM125.35,61.21c-1.24,3.11-2.8,4.66-4.67,4.66l-17.37-.67c-7.35,0-13.64,.5-18.87,1.5s-10.93,2.94-17.09,5.82c-6.17,2.88-9.87,4.32-11.12,4.32s-1.86-.55-1.86-1.66c0-1.77,.43-4.27,1.3-7.48,.87-3.22,1.93-5.27,3.18-6.16,1.24-.88,4.95-2.21,11.11-3.99,6.17-1.77,13.52-3.1,22.05-3.99,8.53-.89,16.09-1.33,22.7-1.33s10.33,.11,11.2,.33c.87,.22,1.31,.95,1.31,2.16s-.62,3.39-1.87,6.49Zm-2.8-28.11c-5.35-.77-11.61-1.16-18.77-1.16s-19.21,2.21-36.15,6.65c-1.37,.45-2.77,.66-4.2,.66s-2.15-1.33-2.15-3.99c0-4.43,.59-7.48,1.77-9.15,1.19-1.66,6.6-3.49,16.26-5.49,9.65-1.99,18.89-2.99,27.74-2.99s15.28,.33,19.33,1c4.05,.66,6.6,1.44,7.66,2.33,1.06,.89,1.59,2.27,1.59,4.16s-.31,3.88-.94,5.98c-.62,2.11-1.8,3.16-3.55,3.16-.37,0-3.24-.38-8.59-1.16Z"/>
</svg>